<?xml version="1.0" encoding="utf-8"?>
<!-- Generator: Adobe Illustrator 17.1.0, SVG Export Plug-In . SVG Version: 6.00 Build 0)  -->
<!DOCTYPE svg PUBLIC "-//W3C//DTD SVG 1.1//EN" "http://www.w3.org/Graphics/SVG/1.1/DTD/svg11.dtd">
<svg version="1.1" id="Layer_1" xmlns="http://www.w3.org/2000/svg" xmlns:xlink="http://www.w3.org/1999/xlink" x="0px" y="0px"
	 viewBox="0 0 25.6 25.6" enable-background="new 0 0 25.6 25.6" xml:space="preserve">
<g>
	<path fill="#ABC2C9" d="M23.5,2.4H20V0.8C20,0.4,19.6,0,19.2,0c-0.4,0-0.8,0.4-0.8,0.8v1.6h-4.8V0.8c0-0.4-0.4-0.8-0.8-0.8
		C12.4,0,12,0.4,12,0.8v1.6H7.2V0.8C7.2,0.4,6.8,0,6.4,0C6,0,5.6,0.4,5.6,0.8v1.6H2.1C1,2.4,0,3.4,0,4.5v18.9c0,1.2,1,2.1,2.1,2.1
		h21.3c1.2,0,2.1-1,2.1-2.1V4.5C25.6,3.4,24.6,2.4,23.5,2.4L23.5,2.4z M24,23.5c0,0.3-0.2,0.5-0.5,0.5H2.1c-0.3,0-0.5-0.2-0.5-0.5
		V4.5C1.6,4.2,1.8,4,2.1,4h3.5v1.6C5.6,6,6,6.4,6.4,6.4c0.4,0,0.8-0.4,0.8-0.8V4H12v1.6c0,0.4,0.4,0.8,0.8,0.8
		c0.4,0,0.8-0.4,0.8-0.8V4h4.8v1.6c0,0.4,0.4,0.8,0.8,0.8C19.6,6.4,20,6,20,5.6V4h3.5C23.8,4,24,4.2,24,4.5V23.5z M24,23.5"/>
	<rect x="5.6" y="9.6" fill="#ABC2C9" width="3.2" height="2.4"/>
	<rect x="5.6" y="13.6" fill="#ABC2C9" width="3.2" height="2.4"/>
	<rect x="5.6" y="17.6" fill="#ABC2C9" width="3.2" height="2.4"/>
	<rect x="11.2" y="17.6" fill="#ABC2C9" width="3.2" height="2.4"/>
	<rect x="11.2" y="13.6" fill="#ABC2C9" width="3.2" height="2.4"/>
	<rect x="11.2" y="9.6" fill="#ABC2C9" width="3.2" height="2.4"/>
	<rect x="16.8" y="17.6" fill="#ABC2C9" width="3.2" height="2.4"/>
	<rect x="16.8" y="13.6" fill="#ABC2C9" width="3.2" height="2.4"/>
	<rect x="16.8" y="9.6" fill="#ABC2C9" width="3.2" height="2.4"/>
</g>
<path fill="#ABC2C9" d="M26.6,117.8c-1.4-1.7-3.5-2.7-5.7-2.7c-1.4,0-2.7,0.4-3.9,1.1c-1.4,0.9-2.5,2.2-3,3.7
	c-0.4-1.3-1.4-2.5-2.7-3.2c-0.8-0.4-1.7-0.7-2.6-0.7c-1.8,0-3.5,0.9-4.6,2.3c-0.1,0.1-0.1,0.2,0,0.2c0,0.1,0.1,0.1,0.2,0.1
	c1.1-0.2,2.3-0.2,3.5,0.1c0.1,0,0.1,0,0.2,0c0,0,0.1-0.1,0.1-0.1l0.1-0.5l0.6,0.9c0,0,0.1,0.1,0.1,0.1c0.4,0.1,0.7,0.3,1,0.4
	c0.2,0.1,0.5,0.3,0.7,0.4c0.1,0,0.1,0,0.2,0c0.1,0,0.1-0.1,0.1-0.2l0.1-0.5l0.5,1.3c0,0,0,0.1,0.1,0.1c0.7,0.6,1.3,1.4,1.7,2.2
	c-1.1-1.2-2.7-2-4.3-2c-0.3,0-0.7,0-1,0.1c-2.9,0.5-4.9,3-4.8,5.9c0,0.1,0.1,0.2,0.1,0.2c0,0,0,0,0.1,0c0.1,0,0.1,0,0.2-0.1
	c0.8-0.9,1.8-1.7,2.9-2.2c0.1,0,0.1-0.1,0.1-0.1c0-0.1,0-0.1,0-0.2l-0.3-0.4l1,0.4c0,0,0.1,0,0.1,0c0.4-0.1,0.7-0.2,1.1-0.3
	c0.3,0,0.6-0.1,0.9-0.1c0.1,0,0.1,0,0.2-0.1c0-0.1,0-0.1,0-0.2l-0.3-0.5l1.2,0.8c0,0,0.1,0,0.1,0c1,0.1,2,0.3,2.9,0.7l-2.6,13.9
	c0,0.1,0,0.1,0,0.2c0,0,0.1,0.1,0.2,0.1h5.5c0,0,0,0,0,0c0.1,0,0.2-0.1,0.2-0.2c0,0,0-0.1,0-0.1l-0.6-6.6c0-0.1,0-0.1-0.1-0.1
	c0,0-0.1,0-0.2,0l-1.2,0.2c0.3-0.4,0.8-1,1.3-1.7c0,0,0-0.1,0-0.1l-0.5-5.4c0.7-0.5,1.5-0.8,2.3-1.1c0,0,0.1,0,0.1,0l1-0.9l-0.2,0.5
	c0,0.1,0,0.1,0,0.2c0,0.1,0.1,0.1,0.2,0.1c0.3,0,0.6-0.1,0.8-0.1c0.3,0,0.7,0,1.1,0c0,0,0.1,0,0.1,0l0.9-0.5l-0.1,0.5
	c0,0.1,0,0.1,0,0.2c0,0.1,0.1,0.1,0.1,0.1c1.2,0.3,2.3,0.8,3.2,1.5c0.1,0.1,0.2,0.1,0.2,0c0.1,0,0.1-0.1,0.1-0.2
	c-0.5-2.8-2.9-4.7-5.7-4.6c-0.8,0-1.6,0.3-2.3,0.6l0.5-1.7l0.2,0.9c0,0.1,0.1,0.1,0.1,0.2c0.1,0,0.1,0,0.2,0
	c0.3-0.3,0.6-0.5,0.9-0.7c0.4-0.2,0.8-0.4,1.3-0.7c0,0,0.1,0,0.1-0.1l0.8-1.4l0.2,0.8c0,0.1,0,0.1,0.1,0.1c0.1,0,0.1,0,0.2,0
	c1.6-0.5,3.2-0.6,4.7-0.4c0.1,0,0.2,0,0.2-0.1C26.6,117.9,26.6,117.8,26.6,117.8L26.6,117.8z M26.6,117.8"/>
</svg>
