<?xml version="1.0" encoding="utf-8"?>
<!-- Generator: Adobe Illustrator 17.1.0, SVG Export Plug-In . SVG Version: 6.00 Build 0)  -->
<!DOCTYPE svg PUBLIC "-//W3C//DTD SVG 1.1//EN" "http://www.w3.org/Graphics/SVG/1.1/DTD/svg11.dtd">
<svg version="1.1" id="Layer_1" xmlns="http://www.w3.org/2000/svg" xmlns:xlink="http://www.w3.org/1999/xlink" x="0px" y="0px"
	 viewBox="0 0 21.8 24.9" enable-background="new 0 0 21.8 24.9" xml:space="preserve">
<g>
	<g>
		<path fill="#91AEB5" d="M19-35.3c0-1.8-2.4-3.2-5.6-3.2c-0.9,0-1.6,0.1-2.4,0.3V-44c0-1.8-2.4-3.2-5.5-3.2C2.4-47.1,0-45.7,0-44
			v13.2c0,1.8,2.4,3.2,5.6,3.2c0.8,0,1.6-0.1,2.4-0.3v2.4c0,1.8,2.4,3.2,5.6,3.2s5.6-1.4,5.6-3.2L19-35.3L19-35.3z M1.5-41.8
			c0,0,0.1,0.1,0.1,0.1c0.1,0.1,0.3,0.2,0.4,0.2c0.2,0.1,0.3,0.1,0.5,0.2c0.1,0,0.1,0,0.2,0.1c0.1,0,0.2,0.1,0.3,0.1
			c0.1,0,0.1,0,0.2,0.1C3.3-41,3.4-41,3.5-41c0.1,0,0.2,0,0.2,0c0.1,0,0.2,0,0.4,0.1c0.1,0,0.2,0,0.2,0c0.1,0,0.3,0,0.4,0
			c0.1,0,0.1,0,0.2,0c0.2,0,0.4,0,0.6,0c0.2,0,0.4,0,0.6,0c0.1,0,0.1,0,0.2,0c0.1,0,0.3,0,0.4,0c0.1,0,0.2,0,0.2,0
			c0.1,0,0.2,0,0.4-0.1c0.1,0,0.2,0,0.2,0c0.1,0,0.2-0.1,0.3-0.1c0.1,0,0.1,0,0.2-0.1c0.1,0,0.2-0.1,0.3-0.1c0.1,0,0.1,0,0.2-0.1
			c0.2-0.1,0.3-0.1,0.5-0.2c0.2-0.1,0.3-0.2,0.4-0.2c0,0,0.1-0.1,0.1-0.1c0.1-0.1,0.2-0.1,0.3-0.2c0,0,0,0,0.1,0v1.2
			c0,1-1.8,2-4.4,2s-4.4-1.1-4.4-2V-42c0,0,0,0,0.1,0C1.3-41.9,1.4-41.9,1.5-41.8L1.5-41.8z M10.9-32.5c0.1,0,0.1,0,0.2,0.1
			c0.1,0,0.2,0.1,0.3,0.1c0.1,0,0.2,0,0.2,0c0.1,0,0.2,0,0.4,0.1c0.1,0,0.2,0,0.2,0c0.1,0,0.3,0,0.4,0c0.1,0,0.1,0,0.2,0
			c0.2,0,0.4,0,0.6,0c0.2,0,0.4,0,0.6,0c0.1,0,0.1,0,0.2,0c0.1,0,0.3,0,0.4,0c0.1,0,0.2,0,0.2,0c0.1,0,0.2,0,0.4-0.1
			c0.1,0,0.2,0,0.2,0c0.1,0,0.2-0.1,0.3-0.1c0.1,0,0.1,0,0.2-0.1c0.1,0,0.2-0.1,0.3-0.1c0.1,0,0.1,0,0.2-0.1
			c0.2-0.1,0.3-0.1,0.5-0.2c0.2-0.1,0.3-0.2,0.4-0.2c0,0,0.1-0.1,0.1-0.1c0.1-0.1,0.2-0.1,0.3-0.2c0,0,0,0,0.1,0v1.2
			c0,1-1.8,2-4.4,2c-1.1,0-2.1-0.2-2.9-0.5c0,0,0,0,0,0C9.8-31,9.2-31.5,9.1-32v-1.4c0.1,0,0.1,0.1,0.2,0.1h0c0,0,0,0,0.1,0
			c0.1,0,0.1,0.1,0.2,0.1c0.1,0,0.1,0.1,0.2,0.1h0c0,0,0,0,0.1,0c0.1,0.1,0.2,0.1,0.4,0.2c0,0,0.1,0,0.1,0c0.1,0,0.2,0.1,0.2,0.1
			c0.1,0,0.1,0,0.2,0.1C10.7-32.6,10.8-32.5,10.9-32.5L10.9-32.5z M7.9-32.4c-0.7,0.2-1.5,0.3-2.4,0.3c-2.6,0-4.4-1.1-4.4-2v-1.2
			c1,0.7,2.6,1.2,4.4,1.2c0.8,0,1.6-0.1,2.4-0.3V-32.4z M17.9-28.8c0,1-1.8,2-4.4,2c-2.5,0-4.3-1-4.4-1.9V-30
			c0.2,0.2,0.5,0.3,0.8,0.5c0.1,0,0.1,0.1,0.2,0.1c0,0,0.1,0,0.1,0c0.9,0.4,2,0.6,3.3,0.6c1.8,0,3.4-0.5,4.4-1.2V-28.8z M8.3-36.5
			c-0.1,0.1-0.1,0.2-0.2,0.2c0,0,0,0.1-0.1,0.1c0,0.1-0.1,0.1-0.1,0.2C8-36,8-35.9,8-35.9c0,0,0,0,0,0.1c-0.7,0.2-1.6,0.4-2.4,0.4
			c-2.6,0-4.4-1.1-4.4-2v-1.2c1,0.7,2.6,1.2,4.4,1.2c1.8,0,3.4-0.5,4.4-1.2v0.9C9.2-37.5,8.7-37.1,8.3-36.5
			C8.4-36.5,8.3-36.5,8.3-36.5L8.3-36.5z M17.9-35.3c0,1-1.8,2-4.4,2c-1.2,0-2.2-0.2-3-0.6c-0.1,0-0.2-0.1-0.3-0.1c0,0,0,0,0,0h0
			L10-34c-0.1-0.1-0.1-0.1-0.1-0.1c0,0,0,0,0,0h0c-0.1,0-0.1-0.1-0.2-0.2h0l-0.1-0.1c0,0-0.1-0.1-0.1-0.1l-0.1-0.1
			c0,0-0.1-0.1-0.1-0.1c0,0,0-0.1-0.1-0.1c0,0,0-0.1-0.1-0.1c-0.1-0.1-0.1-0.2-0.1-0.3v-0.1c0-0.1,0-0.1,0-0.2
			c0.2-0.5,0.7-1,1.6-1.3h0c0.7-0.3,1.6-0.5,2.7-0.5C16.1-37.3,17.9-36.2,17.9-35.3L17.9-35.3z M5.6-46c2.6,0,4.4,1.1,4.4,2
			c0,1-1.8,2-4.4,2c-2.6,0-4.4-1.1-4.4-2C1.1-44.9,2.9-46,5.6-46L5.6-46z M1.1-30.7v-1.2c1,0.7,2.6,1.2,4.4,1.2
			c0.8,0,1.6-0.1,2.4-0.3v2c-0.7,0.2-1.5,0.3-2.4,0.3C2.9-28.7,1.1-29.8,1.1-30.7L1.1-30.7z M17.9-25.4c0,1-1.8,2-4.4,2
			c-2.6,0-4.4-1.1-4.4-2v-1.2c1,0.7,2.6,1.2,4.4,1.2c1.8,0,3.4-0.5,4.4-1.2V-25.4z M17.9-25.4"/>
	</g>
	<g>
		<path fill="#91AEB5" d="M19.1-45.1h2.6v1.8h-2.6v3h-2v-3h-2.7v-1.8h2.7V-48h2V-45.1z"/>
	</g>
</g>
<g>
	<g>
		<path fill="#91AEB5" d="M19,11.8c0-1.8-2.4-3.2-5.6-3.2c-0.9,0-1.6,0.1-2.4,0.3V3.2C11.1,1.4,8.7,0,5.6,0C2.4,0,0,1.4,0,3.2v13.2
			c0,1.8,2.4,3.2,5.6,3.2c0.8,0,1.6-0.1,2.4-0.3v2.4c0,1.8,2.4,3.2,5.6,3.2s5.6-1.4,5.6-3.2L19,11.8L19,11.8z M1.5,5.3
			c0,0,0.1,0.1,0.1,0.1C1.7,5.5,1.9,5.6,2,5.6c0.2,0.1,0.3,0.1,0.5,0.2c0.1,0,0.1,0,0.2,0.1C2.8,5.9,2.9,5.9,3,6C3,6,3.1,6,3.2,6.1
			c0.1,0,0.2,0.1,0.3,0.1c0.1,0,0.2,0,0.2,0c0.1,0,0.2,0,0.4,0.1c0.1,0,0.2,0,0.2,0c0.1,0,0.3,0,0.4,0c0.1,0,0.1,0,0.2,0
			c0.2,0,0.4,0,0.6,0c0.2,0,0.4,0,0.6,0c0.1,0,0.1,0,0.2,0c0.1,0,0.3,0,0.4,0c0.1,0,0.2,0,0.2,0c0.1,0,0.2,0,0.4-0.1
			c0.1,0,0.2,0,0.2,0c0.1,0,0.2-0.1,0.3-0.1C8,6,8,6,8.1,6c0.1,0,0.2-0.1,0.3-0.1c0.1,0,0.1,0,0.2-0.1c0.2-0.1,0.3-0.1,0.5-0.2
			c0.2-0.1,0.3-0.2,0.4-0.2c0,0,0.1-0.1,0.1-0.1c0.1-0.1,0.2-0.1,0.3-0.2c0,0,0,0,0.1,0v1.2c0,1-1.8,2-4.4,2s-4.4-1.1-4.4-2V5.1
			c0,0,0,0,0.1,0C1.3,5.2,1.4,5.3,1.5,5.3L1.5,5.3z M10.9,14.6c0.1,0,0.1,0,0.2,0.1c0.1,0,0.2,0.1,0.3,0.1c0.1,0,0.2,0,0.2,0
			c0.1,0,0.2,0,0.4,0.1c0.1,0,0.2,0,0.2,0c0.1,0,0.3,0,0.4,0c0.1,0,0.1,0,0.2,0c0.2,0,0.4,0,0.6,0c0.2,0,0.4,0,0.6,0
			c0.1,0,0.1,0,0.2,0c0.1,0,0.3,0,0.4,0c0.1,0,0.2,0,0.2,0c0.1,0,0.2,0,0.4-0.1c0.1,0,0.2,0,0.2,0c0.1,0,0.2-0.1,0.3-0.1
			c0.1,0,0.1,0,0.2-0.1c0.1,0,0.2-0.1,0.3-0.1c0.1,0,0.1,0,0.2-0.1c0.2-0.1,0.3-0.1,0.5-0.2c0.2-0.1,0.3-0.2,0.4-0.2
			c0,0,0.1-0.1,0.1-0.1c0.1-0.1,0.2-0.1,0.3-0.2c0,0,0,0,0.1,0V15c0,1-1.8,2-4.4,2c-1.1,0-2.1-0.2-2.9-0.5c0,0,0,0,0,0
			c-0.8-0.3-1.4-0.8-1.5-1.3v-1.4c0.1,0,0.1,0.1,0.2,0.1h0c0,0,0,0,0.1,0c0.1,0,0.1,0.1,0.2,0.1c0.1,0,0.1,0.1,0.2,0.1h0
			c0,0,0,0,0.1,0c0.1,0.1,0.2,0.1,0.4,0.2c0,0,0.1,0,0.1,0c0.1,0,0.2,0.1,0.2,0.1c0.1,0,0.1,0,0.2,0.1
			C10.7,14.6,10.8,14.6,10.9,14.6L10.9,14.6z M7.9,14.7c-0.7,0.2-1.5,0.3-2.4,0.3c-2.6,0-4.4-1.1-4.4-2v-1.2c1,0.7,2.6,1.2,4.4,1.2
			c0.8,0,1.6-0.1,2.4-0.3V14.7z M17.9,18.4c0,1-1.8,2-4.4,2c-2.5,0-4.3-1-4.4-1.9v-1.3c0.2,0.2,0.5,0.3,0.8,0.5
			c0.1,0,0.1,0.1,0.2,0.1c0,0,0.1,0,0.1,0c0.9,0.4,2,0.6,3.3,0.6c1.8,0,3.4-0.5,4.4-1.2V18.4z M8.3,10.6c-0.1,0.1-0.1,0.2-0.2,0.2
			c0,0,0,0.1-0.1,0.1c0,0.1-0.1,0.1-0.1,0.2c0,0.1,0,0.1-0.1,0.2c0,0,0,0,0,0.1c-0.7,0.2-1.6,0.4-2.4,0.4c-2.6,0-4.4-1.1-4.4-2V8.5
			c1,0.7,2.6,1.2,4.4,1.2C7.3,9.7,9,9.2,10,8.5v0.9C9.2,9.6,8.7,10.1,8.3,10.6C8.4,10.6,8.3,10.6,8.3,10.6L8.3,10.6z M17.9,11.8
			c0,1-1.8,2-4.4,2c-1.2,0-2.2-0.2-3-0.6c-0.1,0-0.2-0.1-0.3-0.1c0,0,0,0,0,0h0L10,13.1C10,13,10,13,9.9,13c0,0,0,0,0,0h0
			c-0.1,0-0.1-0.1-0.2-0.2h0l-0.1-0.1c0,0-0.1-0.1-0.1-0.1l-0.1-0.1c0,0-0.1-0.1-0.1-0.1c0,0,0-0.1-0.1-0.1c0,0,0-0.1-0.1-0.1
			c-0.1-0.1-0.1-0.2-0.1-0.3v-0.1c0-0.1,0-0.1,0-0.2c0.2-0.5,0.7-1,1.6-1.3h0c0.7-0.3,1.6-0.5,2.7-0.5C16.1,9.8,17.9,10.9,17.9,11.8
			L17.9,11.8z M5.6,1.1c2.6,0,4.4,1.1,4.4,2c0,1-1.8,2-4.4,2c-2.6,0-4.4-1.1-4.4-2C1.1,2.2,2.9,1.1,5.6,1.1L5.6,1.1z M1.1,16.4v-1.2
			c1,0.7,2.6,1.2,4.4,1.2c0.8,0,1.6-0.1,2.4-0.3v2c-0.7,0.2-1.5,0.3-2.4,0.3C2.9,18.4,1.1,17.4,1.1,16.4L1.1,16.4z M17.9,21.7
			c0,1-1.8,2-4.4,2c-2.6,0-4.4-1.1-4.4-2v-1.2c1,0.7,2.6,1.2,4.4,1.2c1.8,0,3.4-0.5,4.4-1.2V21.7z M17.9,21.7"/>
	</g>
	<g>
		<path fill="#91AEB5" d="M19.1,3h2.6v1.8h-2.6v0h-2v0h-2.7V3h2.7"/>
	</g>
</g>
</svg>
