<?xml version="1.0" encoding="utf-8"?>
<!-- Generator: Adobe Illustrator 17.1.0, SVG Export Plug-In . SVG Version: 6.00 Build 0)  -->
<!DOCTYPE svg PUBLIC "-//W3C//DTD SVG 1.1//EN" "http://www.w3.org/Graphics/SVG/1.1/DTD/svg11.dtd">
<svg version="1.1" id="Layer_1" xmlns="http://www.w3.org/2000/svg" xmlns:xlink="http://www.w3.org/1999/xlink" x="0px" y="0px"
	 viewBox="0 0 21.8 25.7" enable-background="new 0 0 21.8 25.7" xml:space="preserve">
<g>
	<g>
		<path fill="#91AEB5" d="M19,12.7c0-1.8-2.4-3.2-5.6-3.2c-0.9,0-1.6,0.1-2.4,0.3V4c0-1.8-2.4-3.2-5.5-3.2C2.4,0.8,0,2.2,0,4v13.2
			c0,1.8,2.4,3.2,5.6,3.2c0.8,0,1.6-0.1,2.4-0.3v2.4c0,1.8,2.4,3.2,5.6,3.2s5.6-1.4,5.6-3.2L19,12.7L19,12.7z M1.5,6.2
			c0,0,0.1,0.1,0.1,0.1C1.7,6.3,1.9,6.4,2,6.4c0.2,0.1,0.3,0.1,0.5,0.2c0.1,0,0.1,0,0.2,0.1c0.1,0,0.2,0.1,0.3,0.1
			c0.1,0,0.1,0,0.2,0.1c0.1,0,0.2,0.1,0.3,0.1c0.1,0,0.2,0,0.2,0C3.9,7,4,7,4.1,7.1c0.1,0,0.2,0,0.2,0c0.1,0,0.3,0,0.4,0
			c0.1,0,0.1,0,0.2,0c0.2,0,0.4,0,0.6,0c0.2,0,0.4,0,0.6,0c0.1,0,0.1,0,0.2,0c0.1,0,0.3,0,0.4,0c0.1,0,0.2,0,0.2,0
			C7.1,7,7.2,7,7.4,7c0.1,0,0.2,0,0.2,0c0.1,0,0.2-0.1,0.3-0.1c0.1,0,0.1,0,0.2-0.1c0.1,0,0.2-0.1,0.3-0.1c0.1,0,0.1,0,0.2-0.1
			c0.2-0.1,0.3-0.1,0.5-0.2c0.2-0.1,0.3-0.2,0.4-0.2c0,0,0.1-0.1,0.1-0.1C9.7,6.1,9.8,6,9.9,6c0,0,0,0,0.1,0v1.2c0,1-1.8,2-4.4,2
			s-4.4-1.1-4.4-2V5.9c0,0,0,0,0.1,0C1.3,6,1.4,6.1,1.5,6.2L1.5,6.2z M10.9,15.5c0.1,0,0.1,0,0.2,0.1c0.1,0,0.2,0.1,0.3,0.1
			c0.1,0,0.2,0,0.2,0c0.1,0,0.2,0,0.4,0.1c0.1,0,0.2,0,0.2,0c0.1,0,0.3,0,0.4,0c0.1,0,0.1,0,0.2,0c0.2,0,0.4,0,0.6,0
			c0.2,0,0.4,0,0.6,0c0.1,0,0.1,0,0.2,0c0.1,0,0.3,0,0.4,0c0.1,0,0.2,0,0.2,0c0.1,0,0.2,0,0.4-0.1c0.1,0,0.2,0,0.2,0
			c0.1,0,0.2-0.1,0.3-0.1c0.1,0,0.1,0,0.2-0.1c0.1,0,0.2-0.1,0.3-0.1c0.1,0,0.1,0,0.2-0.1c0.2-0.1,0.3-0.1,0.5-0.2
			c0.2-0.1,0.3-0.2,0.4-0.2c0,0,0.1-0.1,0.1-0.1c0.1-0.1,0.2-0.1,0.3-0.2c0,0,0,0,0.1,0v1.2c0,1-1.8,2-4.4,2c-1.1,0-2.1-0.2-2.9-0.5
			c0,0,0,0,0,0C9.8,17,9.2,16.5,9.1,16v-1.4c0.1,0,0.1,0.1,0.2,0.1h0c0,0,0,0,0.1,0c0.1,0,0.1,0.1,0.2,0.1c0.1,0,0.1,0.1,0.2,0.1h0
			c0,0,0,0,0.1,0c0.1,0.1,0.2,0.1,0.4,0.2c0,0,0.1,0,0.1,0c0.1,0,0.2,0.1,0.2,0.1c0.1,0,0.1,0,0.2,0.1
			C10.7,15.4,10.8,15.4,10.9,15.5L10.9,15.5z M7.9,15.6c-0.7,0.2-1.5,0.3-2.4,0.3c-2.6,0-4.4-1.1-4.4-2v-1.2c1,0.7,2.6,1.2,4.4,1.2
			c0.8,0,1.6-0.1,2.4-0.3V15.6z M17.9,19.2c0,1-1.8,2-4.4,2c-2.5,0-4.3-1-4.4-1.9V18c0.2,0.2,0.5,0.3,0.8,0.5c0.1,0,0.1,0.1,0.2,0.1
			c0,0,0.1,0,0.1,0c0.9,0.4,2,0.6,3.3,0.6c1.8,0,3.4-0.5,4.4-1.2V19.2z M8.3,11.4c-0.1,0.1-0.1,0.2-0.2,0.2c0,0,0,0.1-0.1,0.1
			c0,0.1-0.1,0.1-0.1,0.2C8,12,8,12.1,8,12.1c0,0,0,0,0,0.1c-0.7,0.2-1.6,0.4-2.4,0.4c-2.6,0-4.4-1.1-4.4-2V9.3
			c1,0.7,2.6,1.2,4.4,1.2C7.3,10.5,9,10,10,9.3v0.9C9.2,10.5,8.7,10.9,8.3,11.4C8.4,11.4,8.3,11.4,8.3,11.4L8.3,11.4z M17.9,12.7
			c0,1-1.8,2-4.4,2c-1.2,0-2.2-0.2-3-0.6c-0.1,0-0.2-0.1-0.3-0.1c0,0,0,0,0,0h0L10,13.9c-0.1-0.1-0.1-0.1-0.1-0.1c0,0,0,0,0,0h0
			c-0.1,0-0.1-0.1-0.2-0.2h0l-0.1-0.1c0,0-0.1-0.1-0.1-0.1l-0.1-0.1c0,0-0.1-0.1-0.1-0.1c0,0,0-0.1-0.1-0.1c0,0,0-0.1-0.1-0.1
			c-0.1-0.1-0.1-0.2-0.1-0.3v-0.1c0-0.1,0-0.1,0-0.2c0.2-0.5,0.7-1,1.6-1.3h0c0.7-0.3,1.6-0.5,2.7-0.5
			C16.1,10.7,17.9,11.7,17.9,12.7L17.9,12.7z M5.6,2C8.2,2,10,3,10,4c0,1-1.8,2-4.4,2C2.9,6,1.1,5,1.1,4C1.1,3.1,2.9,2,5.6,2L5.6,2z
			 M1.1,17.2V16c1,0.7,2.6,1.2,4.4,1.2c0.8,0,1.6-0.1,2.4-0.3v2c-0.7,0.2-1.5,0.3-2.4,0.3C2.9,19.3,1.1,18.2,1.1,17.2L1.1,17.2z
			 M17.9,22.5c0,1-1.8,2-4.4,2c-2.6,0-4.4-1.1-4.4-2v-1.2c1,0.7,2.6,1.2,4.4,1.2c1.8,0,3.4-0.5,4.4-1.2V22.5z M17.9,22.5"/>
	</g>
	<g>
		<path fill="#91AEB5" d="M19.1,2.9h2.6v1.8h-2.6v3h-2v-3h-2.7V2.9h2.7V0h2V2.9z"/>
	</g>
</g>
<g>
	<g>
		<path fill="#91AEB5" d="M19,59.8c0-1.8-2.4-3.2-5.6-3.2c-0.9,0-1.6,0.1-2.4,0.3v-5.8c0-1.8-2.4-3.2-5.5-3.2C2.4,48,0,49.4,0,51.1
			v13.2c0,1.8,2.4,3.2,5.6,3.2c0.8,0,1.6-0.1,2.4-0.3v2.4c0,1.8,2.4,3.2,5.6,3.2s5.6-1.4,5.6-3.2L19,59.8L19,59.8z M1.5,53.3
			c0,0,0.1,0.1,0.1,0.1c0.1,0.1,0.3,0.2,0.4,0.2c0.2,0.1,0.3,0.1,0.5,0.2c0.1,0,0.1,0,0.2,0.1c0.1,0,0.2,0.1,0.3,0.1
			C3,54,3.1,54,3.2,54c0.1,0,0.2,0.1,0.3,0.1c0.1,0,0.2,0,0.2,0c0.1,0,0.2,0,0.4,0.1c0.1,0,0.2,0,0.2,0c0.1,0,0.3,0,0.4,0
			c0.1,0,0.1,0,0.2,0c0.2,0,0.4,0,0.6,0c0.2,0,0.4,0,0.6,0c0.1,0,0.1,0,0.2,0c0.1,0,0.3,0,0.4,0c0.1,0,0.2,0,0.2,0
			c0.1,0,0.2,0,0.4-0.1c0.1,0,0.2,0,0.2,0c0.1,0,0.2-0.1,0.3-0.1C8,54,8,54,8.1,54c0.1,0,0.2-0.1,0.3-0.1c0.1,0,0.1,0,0.2-0.1
			c0.2-0.1,0.3-0.1,0.5-0.2c0.2-0.1,0.3-0.2,0.4-0.2c0,0,0.1-0.1,0.1-0.1c0.1-0.1,0.2-0.1,0.3-0.2c0,0,0,0,0.1,0v1.2
			c0,1-1.8,2-4.4,2s-4.4-1.1-4.4-2v-1.2c0,0,0,0,0.1,0C1.3,53.2,1.4,53.2,1.5,53.3L1.5,53.3z M10.9,62.6c0.1,0,0.1,0,0.2,0.1
			c0.1,0,0.2,0.1,0.3,0.1c0.1,0,0.2,0,0.2,0c0.1,0,0.2,0,0.4,0.1c0.1,0,0.2,0,0.2,0c0.1,0,0.3,0,0.4,0c0.1,0,0.1,0,0.2,0
			c0.2,0,0.4,0,0.6,0c0.2,0,0.4,0,0.6,0c0.1,0,0.1,0,0.2,0c0.1,0,0.3,0,0.4,0c0.1,0,0.2,0,0.2,0c0.1,0,0.2,0,0.4-0.1
			c0.1,0,0.2,0,0.2,0c0.1,0,0.2-0.1,0.3-0.1c0.1,0,0.1,0,0.2-0.1c0.1,0,0.2-0.1,0.3-0.1c0.1,0,0.1,0,0.2-0.1
			c0.2-0.1,0.3-0.1,0.5-0.2c0.2-0.1,0.3-0.2,0.4-0.2c0,0,0.1-0.1,0.1-0.1c0.1-0.1,0.2-0.1,0.3-0.2c0,0,0,0,0.1,0v1.2
			c0,1-1.8,2-4.4,2c-1.1,0-2.1-0.2-2.9-0.5c0,0,0,0,0,0c-0.8-0.3-1.4-0.8-1.5-1.3v-1.4c0.1,0,0.1,0.1,0.2,0.1h0c0,0,0,0,0.1,0
			c0.1,0,0.1,0.1,0.2,0.1C9.6,62,9.6,62,9.7,62h0c0,0,0,0,0.1,0c0.1,0.1,0.2,0.1,0.4,0.2c0,0,0.1,0,0.1,0c0.1,0,0.2,0.1,0.2,0.1
			c0.1,0,0.1,0,0.2,0.1C10.7,62.5,10.8,62.6,10.9,62.6L10.9,62.6z M7.9,62.7C7.2,62.9,6.4,63,5.6,63C3,63,1.2,62,1.2,61v-1.2
			c1,0.7,2.6,1.2,4.4,1.2c0.8,0,1.6-0.1,2.4-0.3V62.7z M17.9,66.3c0,1-1.8,2-4.4,2c-2.5,0-4.3-1-4.4-1.9v-1.3
			c0.2,0.2,0.5,0.3,0.8,0.5c0.1,0,0.1,0.1,0.2,0.1c0,0,0.1,0,0.1,0c0.9,0.4,2,0.6,3.3,0.6c1.8,0,3.4-0.5,4.4-1.2V66.3z M8.3,58.6
			c-0.1,0.1-0.1,0.2-0.2,0.2c0,0,0,0.1-0.1,0.1c0,0.1-0.1,0.1-0.1,0.2c0,0.1,0,0.1-0.1,0.2c0,0,0,0,0,0.1c-0.7,0.2-1.6,0.4-2.4,0.4
			c-2.6,0-4.4-1.1-4.4-2v-1.2c1,0.7,2.6,1.2,4.4,1.2c1.8,0,3.4-0.5,4.4-1.2v0.9C9.2,57.6,8.7,58,8.3,58.6
			C8.4,58.6,8.3,58.6,8.3,58.6L8.3,58.6z M17.9,59.8c0,1-1.8,2-4.4,2c-1.2,0-2.2-0.2-3-0.6c-0.1,0-0.2-0.1-0.3-0.1c0,0,0,0,0,0h0
			L10,61.1C10,61,10,61,9.9,61c0,0,0,0,0,0h0c-0.1,0-0.1-0.1-0.2-0.2h0l-0.1-0.1c0,0-0.1-0.1-0.1-0.1l-0.1-0.1c0,0-0.1-0.1-0.1-0.1
			c0,0,0-0.1-0.1-0.1c0,0,0-0.1-0.1-0.1c-0.1-0.1-0.1-0.2-0.1-0.3v-0.1c0-0.1,0-0.1,0-0.2c0.2-0.5,0.7-1,1.6-1.3h0
			c0.7-0.3,1.6-0.5,2.7-0.5C16.1,57.8,17.9,58.9,17.9,59.8L17.9,59.8z M5.6,49.1c2.6,0,4.4,1.1,4.4,2c0,1-1.8,2-4.4,2
			c-2.6,0-4.4-1.1-4.4-2C1.1,50.2,2.9,49.1,5.6,49.1L5.6,49.1z M1.1,64.4v-1.2c1,0.7,2.6,1.2,4.4,1.2c0.8,0,1.6-0.1,2.4-0.3v2
			c-0.7,0.2-1.5,0.3-2.4,0.3C2.9,66.4,1.1,65.3,1.1,64.4L1.1,64.4z M17.9,69.7c0,1-1.8,2-4.4,2c-2.6,0-4.4-1.1-4.4-2v-1.2
			c1,0.7,2.6,1.2,4.4,1.2c1.8,0,3.4-0.5,4.4-1.2V69.7z M17.9,69.7"/>
	</g>
	<g>
		<path fill="#91AEB5" d="M19.1,51h2.6v1.8h-2.6v0h-2v0h-2.7V51h2.7"/>
	</g>
</g>
</svg>
