<?xml version="1.0" encoding="utf-8"?>
<!-- Generator: Adobe Illustrator 17.1.0, SVG Export Plug-In . SVG Version: 6.00 Build 0)  -->
<!DOCTYPE svg PUBLIC "-//W3C//DTD SVG 1.1//EN" "http://www.w3.org/Graphics/SVG/1.1/DTD/svg11.dtd">
<svg version="1.1" id="Layer_1" xmlns="http://www.w3.org/2000/svg" xmlns:xlink="http://www.w3.org/1999/xlink" x="0px" y="0px"
	 viewBox="0 0 24.6 24.6" enable-background="new 0 0 24.6 24.6" xml:space="preserve">
<g>
	<path fill="#ABC2C9" d="M22.1-55.1h-3.5v-1.6c0-0.4-0.4-0.8-0.8-0.8c-0.4,0-0.8,0.4-0.8,0.8v1.6h-4.8v-1.6c0-0.4-0.4-0.8-0.8-0.8
		c-0.4,0-0.8,0.4-0.8,0.8v1.6H5.8v-1.6c0-0.4-0.4-0.8-0.8-0.8c-0.4,0-0.8,0.4-0.8,0.8v1.6H0.7c-1.2,0-2.1,1-2.1,2.1V-34
		c0,1.2,1,2.1,2.1,2.1h21.3c1.2,0,2.1-1,2.1-2.1V-53C24.2-54.1,23.2-55.1,22.1-55.1L22.1-55.1z M22.6-34c0,0.3-0.2,0.5-0.5,0.5H0.7
		c-0.3,0-0.5-0.2-0.5-0.5V-53c0-0.3,0.2-0.5,0.5-0.5h3.5v1.6c0,0.4,0.4,0.8,0.8,0.8c0.4,0,0.8-0.4,0.8-0.8v-1.6h4.8v1.6
		c0,0.4,0.4,0.8,0.8,0.8c0.4,0,0.8-0.4,0.8-0.8v-1.6H17v1.6c0,0.4,0.4,0.8,0.8,0.8c0.4,0,0.8-0.4,0.8-0.8v-1.6h3.5
		c0.3,0,0.5,0.2,0.5,0.5V-34z M22.6-34"/>
	<rect x="4.2" y="-47.9" fill="#ABC2C9" width="3.2" height="2.4"/>
	<rect x="4.2" y="-43.9" fill="#ABC2C9" width="3.2" height="2.4"/>
	<rect x="4.2" y="-39.9" fill="#ABC2C9" width="3.2" height="2.4"/>
	<rect x="9.8" y="-39.9" fill="#ABC2C9" width="3.2" height="2.4"/>
	<rect x="9.8" y="-43.9" fill="#ABC2C9" width="3.2" height="2.4"/>
	<rect x="9.8" y="-47.9" fill="#ABC2C9" width="3.2" height="2.4"/>
	<rect x="15.4" y="-39.9" fill="#ABC2C9" width="3.2" height="2.4"/>
	<rect x="15.4" y="-43.9" fill="#ABC2C9" width="3.2" height="2.4"/>
	<rect x="15.4" y="-47.9" fill="#ABC2C9" width="3.2" height="2.4"/>
</g>
<path fill="#ABC2C9" d="M12.3,0C5.5,0,0,5.5,0,12.3s5.5,12.3,12.3,12.3s12.3-5.5,12.3-12.3S19.1,0,12.3,0L12.3,0z M17.5,20.5
	l-0.5-0.9c-0.1-0.1-0.2-0.2-0.3-0.2c-0.1,0-0.1,0-0.2,0c-0.1,0-0.1,0.1-0.2,0.2c0,0.1,0,0.2,0,0.3l0.5,0.9c-1.2,0.6-2.5,1-3.9,1.1
	v-1.3c0-0.4-0.3-0.6-0.6-0.6s-0.6,0.3-0.6,0.6V22c-1.4-0.1-2.7-0.5-3.9-1.1L8.3,20c0-0.1,0.1-0.2,0-0.3c0-0.1-0.1-0.2-0.2-0.2
	c-0.1,0-0.1,0-0.2,0c-0.1,0-0.2,0.1-0.3,0.2l-0.5,0.9C6,19.8,5,18.8,4.2,17.7l1.1-0.6c0.3-0.2,0.4-0.6,0.2-0.9
	c-0.2-0.3-0.6-0.4-0.9-0.2l-1.1,0.6c-0.6-1.2-0.9-2.5-1-3.9l1.1,0c0.1,0,0.2,0,0.2-0.1C4,12.5,4,12.4,4,12.3C4,12.1,3.8,12,3.7,12
	l-1.1,0c0-1.4,0.4-2.8,1-4l1.1,0.6C4.8,8.7,4.9,8.7,5,8.7c0.2,0,0.4-0.1,0.6-0.3c0.2-0.3,0.1-0.7-0.2-0.9L4.2,6.9
	C5,5.8,6,4.8,7.1,4.1L7.7,5c0,0.1,0.1,0.1,0.1,0.1c0.1,0.1,0.2,0.1,0.3,0c0.1,0,0.1-0.1,0.2-0.2c0-0.1,0-0.2,0-0.3L7.7,3.7
	c1.2-0.6,2.5-1,3.9-1.1v1.3c0,0.4,0.3,0.6,0.6,0.6s0.6-0.3,0.6-0.6V2.6c1.4,0.1,2.7,0.5,3.9,1.1l-0.5,0.9c-0.1,0.2,0,0.4,0.1,0.5
	c0.1,0,0.1,0,0.2,0c0.1,0,0.2-0.1,0.3-0.2l0.5-0.9c1.2,0.7,2.2,1.7,2.9,2.8l-1.1,0.6c-0.3,0.2-0.4,0.6-0.2,0.9
	c0.1,0.2,0.3,0.3,0.6,0.3c0.1,0,0.2,0,0.3-0.1L21,8c0.6,1.2,0.9,2.5,1,3.9l-1.1,0c-0.1,0-0.2,0-0.2,0.1c-0.1,0.1-0.1,0.2-0.1,0.2
	c0,0.1,0.1,0.2,0.2,0.3c0.1,0,0.1,0,0.2,0h0l1.1,0c0,1.4-0.4,2.8-1,4l-1.1-0.6c-0.3-0.2-0.7-0.1-0.9,0.2c-0.2,0.3-0.1,0.7,0.2,0.9
	l1.1,0.6C19.6,18.8,18.6,19.8,17.5,20.5L17.5,20.5z M17.5,20.5"/>
<path fill="#ABC2C9" d="M17.1,8.8l-4.2,2.3c-0.2-0.1-0.4-0.2-0.6-0.2c-0.2,0-0.4,0.1-0.6,0.2L7.5,8.8C7.1,8.6,6.6,8.7,6.4,9.1
	C6.2,9.5,6.3,10,6.7,10.2l4.2,2.4c0.1,0.6,0.7,1.1,1.3,1.1c0.7,0,1.2-0.5,1.3-1.1l4.2-2.4c0.4-0.2,0.5-0.7,0.3-1.1
	C18,8.7,17.5,8.6,17.1,8.8L17.1,8.8z M17.1,8.8"/>
<path fill="#ABC2C9" d="M25.2,60.3c-1.4-1.7-3.5-2.7-5.7-2.7c-1.4,0-2.7,0.4-3.9,1.1c-1.4,0.9-2.5,2.2-3,3.7
	c-0.4-1.3-1.4-2.5-2.7-3.2c-0.8-0.4-1.7-0.7-2.6-0.7c-1.8,0-3.5,0.9-4.6,2.3c-0.1,0.1-0.1,0.2,0,0.2c0,0.1,0.1,0.1,0.2,0.1
	C4,61,5.2,61,6.4,61.3c0.1,0,0.1,0,0.2,0c0,0,0.1-0.1,0.1-0.1l0.1-0.5l0.6,0.9c0,0,0.1,0.1,0.1,0.1c0.4,0.1,0.7,0.3,1,0.4
	c0.2,0.1,0.5,0.3,0.7,0.4c0.1,0,0.1,0,0.2,0c0.1,0,0.1-0.1,0.1-0.2l0.1-0.5l0.5,1.3c0,0,0,0.1,0.1,0.1c0.7,0.6,1.3,1.4,1.7,2.2
	c-1.1-1.2-2.7-2-4.3-2c-0.3,0-0.7,0-1,0.1c-2.9,0.5-4.9,3-4.8,5.9c0,0.1,0.1,0.2,0.1,0.2c0,0,0,0,0.1,0c0.1,0,0.1,0,0.2-0.1
	c0.8-0.9,1.8-1.7,2.9-2.2c0.1,0,0.1-0.1,0.1-0.1c0-0.1,0-0.1,0-0.2l-0.3-0.4l1,0.4c0,0,0.1,0,0.1,0c0.4-0.1,0.7-0.2,1.1-0.3
	c0.3,0,0.6-0.1,0.9-0.1c0.1,0,0.1,0,0.2-0.1c0-0.1,0-0.1,0-0.2l-0.3-0.5L9,66.6c0,0,0.1,0,0.1,0c1,0.1,2,0.3,2.9,0.7L9.3,81.2
	c0,0.1,0,0.1,0,0.2c0,0,0.1,0.1,0.2,0.1h5.5c0,0,0,0,0,0c0.1,0,0.2-0.1,0.2-0.2c0,0,0-0.1,0-0.1l-0.6-6.6c0-0.1,0-0.1-0.1-0.1
	c0,0-0.1,0-0.2,0l-1.2,0.2c0.3-0.4,0.8-1,1.3-1.7c0,0,0-0.1,0-0.1L14,67.4c0.7-0.5,1.5-0.8,2.3-1.1c0,0,0.1,0,0.1,0l1-0.9l-0.2,0.5
	c0,0.1,0,0.1,0,0.2c0,0.1,0.1,0.1,0.2,0.1c0.3,0,0.6-0.1,0.8-0.1c0.3,0,0.7,0,1.1,0c0,0,0.1,0,0.1,0l0.9-0.5l-0.1,0.5
	c0,0.1,0,0.1,0,0.2c0,0.1,0.1,0.1,0.1,0.1c1.2,0.3,2.3,0.8,3.2,1.5c0.1,0.1,0.2,0.1,0.2,0c0.1,0,0.1-0.1,0.1-0.2
	c-0.5-2.8-2.9-4.7-5.7-4.6c-0.8,0-1.6,0.3-2.3,0.6l0.5-1.7l0.2,0.9c0,0.1,0.1,0.1,0.1,0.2c0.1,0,0.1,0,0.2,0
	c0.3-0.3,0.6-0.5,0.9-0.7c0.4-0.2,0.8-0.4,1.3-0.7c0,0,0.1,0,0.1-0.1l0.8-1.4l0.2,0.8c0,0.1,0,0.1,0.1,0.1c0.1,0,0.1,0,0.2,0
	c1.6-0.5,3.2-0.6,4.7-0.4c0.1,0,0.2,0,0.2-0.1C25.2,60.4,25.2,60.3,25.2,60.3L25.2,60.3z M25.2,60.3"/>
</svg>
