<?xml version="1.0" encoding="utf-8"?>
<!-- Generator: Adobe Illustrator 17.1.0, SVG Export Plug-In . SVG Version: 6.00 Build 0)  -->
<!DOCTYPE svg PUBLIC "-//W3C//DTD SVG 1.1//EN" "http://www.w3.org/Graphics/SVG/1.1/DTD/svg11.dtd">
<svg version="1.1" id="Layer_1" xmlns="http://www.w3.org/2000/svg" xmlns:xlink="http://www.w3.org/1999/xlink" x="0px" y="0px"
	 viewBox="0 0 26.2 26.2" enable-background="new 0 0 26.2 26.2" xml:space="preserve">
<g>
	<path fill="#91AEB5" d="M13.1,7.9c-0.7,0-1.4,0.1-2,0.4c-2.7,1.1-3.9,4.2-2.8,6.8c0.8,2,2.7,3.2,4.8,3.2c0.7,0,1.4-0.1,2-0.4
		c2.7-1.1,3.9-4.2,2.8-6.8C17.1,9.1,15.2,7.9,13.1,7.9L13.1,7.9z M14.3,15.9c-0.4,0.2-0.8,0.2-1.2,0.2c-1.2,0-2.4-0.7-2.8-1.9
		c-0.6-1.6,0.1-3.3,1.7-4c0.4-0.2,0.8-0.2,1.2-0.2c1.2,0,2.4,0.7,2.8,1.9C16.6,13.5,15.8,15.3,14.3,15.9L14.3,15.9z M14.3,15.9"/>
	<path fill="#91AEB5" d="M25,14.7c-0.7-0.2-1.1-0.9-1.1-1.6c0-0.6,0.4-1.3,1-1.5l0.1,0c0.9-0.3,1.4-1.3,1.1-2.2
		c-0.3-1-0.7-1.9-1.2-2.8C24.6,6,24,5.7,23.3,5.7c-0.3,0-0.5,0.1-0.7,0.1c-0.2,0.1-0.4,0.1-0.7,0.1c-0.4,0-0.9-0.2-1.2-0.5
		c-0.5-0.5-0.6-1.2-0.3-1.9c0.4-0.8,0.1-1.9-0.7-2.3c-0.9-0.5-1.8-0.9-2.8-1.2C16.7,0,16.5,0,16.4,0c-0.8,0-1.4,0.5-1.7,1.2
		c-0.2,0.6-0.9,1.1-1.6,1.1c-0.7,0-1.3-0.5-1.6-1.1C11.3,0.5,10.6,0,9.9,0C9.7,0,9.6,0,9.4,0.1c-1,0.3-1.9,0.7-2.8,1.2
		C5.8,1.7,5.4,2.7,5.8,3.5C6.1,4.2,6,4.9,5.5,5.4C5.2,5.7,4.7,5.9,4.3,5.9c-0.2,0-0.5,0-0.7-0.1C3.4,5.6,3.1,5.6,2.8,5.6
		c-0.6,0-1.2,0.3-1.6,0.9C0.8,7.4,0.4,8.3,0.1,9.3c-0.3,0.9,0.2,1.9,1.1,2.2c0.7,0.2,1.1,0.9,1.1,1.6c0,0.7-0.5,1.3-1.2,1.6
		c-0.9,0.3-1.3,1.2-1.1,2.2c0.3,1,0.7,1.9,1.2,2.8c0.3,0.5,0.9,0.9,1.6,0.9c0.3,0,0.5-0.1,0.8-0.1l0,0c0.2-0.1,0.4-0.1,0.6-0.1
		c0.4,0,0.9,0.2,1.2,0.5C5.9,21.2,6,22,5.7,22.6c-0.4,0.8-0.1,1.9,0.7,2.3c0.9,0.5,1.8,0.9,2.8,1.2c0.2,0,0.3,0.1,0.5,0.1
		c0.8,0,1.4-0.5,1.7-1.2c0.2-0.6,0.9-1.1,1.6-1.1c0.7,0,1.3,0.5,1.6,1.1c0.2,0.7,0.9,1.2,1.7,1.2c0.2,0,0.3,0,0.5-0.1
		c0.5-0.1,1-0.3,1.5-0.5c0.5-0.2,0.9-0.4,1.3-0.6c0.8-0.4,1.1-1.5,0.8-2.3c-0.3-0.6-0.2-1.4,0.3-1.9c0.3-0.3,0.7-0.5,1.2-0.5
		c0.2,0,0.5,0,0.7,0.1c0.2,0.1,0.5,0.2,0.8,0.2c0.6,0,1.2-0.3,1.6-0.9c0.5-0.9,0.9-1.9,1.2-2.8C26.3,16,25.9,15,25,14.7L25,14.7z
		 M23.1,18.3c-0.4-0.1-0.8-0.2-1.2-0.2c-1,0-2,0.4-2.7,1.1c-1,1-1.4,2.6-0.9,4c-0.3,0.1-0.5,0.3-0.8,0.4c-0.3,0.1-0.6,0.2-0.9,0.3
		c-0.6-1.3-2-2.2-3.5-2.2c-1.4,0-2.8,0.9-3.5,2.2c-0.6-0.2-1.2-0.4-1.7-0.7c0.5-1.4,0.1-2.9-0.9-4C6.3,18.4,5.3,18,4.2,18
		c-0.4,0-0.9,0.1-1.3,0.2c-0.3-0.6-0.5-1.1-0.7-1.7c1.4-0.7,2.2-2,2.2-3.5c0-1.5-0.9-2.9-2.2-3.5C2.5,9,2.7,8.4,3,7.8
		C3.4,8,3.8,8,4.3,8c1,0,2-0.4,2.7-1.1c1-1,1.4-2.6,0.9-4c0.5-0.3,1.1-0.5,1.7-0.7c0.6,1.3,2,2.2,3.5,2.2c1.4,0,2.8-0.9,3.5-2.2
		c0.6,0.2,1.2,0.4,1.7,0.7c-0.5,1.4-0.1,2.9,0.9,4c0.7,0.7,1.7,1.1,2.7,1.1c0.4,0,0.9-0.1,1.3-0.2c0.3,0.6,0.5,1.1,0.7,1.7
		c-1.3,0.6-2.2,2-2.2,3.5c0,1.5,0.9,2.9,2.2,3.5C23.7,17.2,23.4,17.8,23.1,18.3L23.1,18.3z M23.1,18.3"/>
</g>
<g>
	<path fill="#91AEB5" d="M20.9,89h-3.2V87c0-0.4-0.3-0.7-0.8-0.7c0,0-0.1,0-0.1,0c0,0,0,0-0.1,0H9.2c-0.4,0-0.7,0.3-0.7,0.7V89H5.3
		c-0.9,0-1.6,0.7-1.6,1.6v2.7H5v15.2c0,0.9,0.7,1.6,1.6,1.6h12.9c0.9,0,1.6-0.7,1.6-1.6V93.3h1.4v-2.7C22.6,89.8,21.8,89,20.9,89
		L20.9,89z M9.9,87.7h6.3V89H9.9V87.7z M19.7,108.6c0,0.1,0,0.1-0.1,0.1H6.7c-0.1,0-0.1,0-0.1-0.1V93.3h13.1V108.6z M21.1,91.9H5.1
		v-1.2c0-0.1,0-0.1,0.1-0.1h15.7c0.1,0,0.1,0.1,0.1,0.1V91.9z M21.1,91.9"/>
	<rect x="15.8" y="95.1" fill="#91AEB5" width="1.5" height="12.3"/>
	<rect x="12.3" y="95.1" fill="#91AEB5" width="1.5" height="12.3"/>
	<rect x="8.9" y="95.1" fill="#91AEB5" width="1.5" height="12.3"/>
</g>
<g>
	<path fill="#91AEB5" d="M16.5,53.6H9.7c-0.2,0-0.4,0.2-0.4,0.4c0,0.2,0.2,0.4,0.4,0.4h6.9c0.2,0,0.4-0.2,0.4-0.4
		C16.9,53.8,16.7,53.6,16.5,53.6L16.5,53.6z M16.5,53.6"/>
	<path fill="#91AEB5" d="M16.5,57H9.7c-0.2,0-0.4,0.2-0.4,0.4c0,0.2,0.2,0.4,0.4,0.4h6.9c0.2,0,0.4-0.2,0.4-0.4
		C16.9,57.2,16.7,57,16.5,57L16.5,57z M16.5,57"/>
	<path fill="#91AEB5" d="M16.5,60.5H9.7c-0.2,0-0.4,0.2-0.4,0.4c0,0.2,0.2,0.4,0.4,0.4h6.9c0.2,0,0.4-0.2,0.4-0.4
		C16.9,60.6,16.7,60.5,16.5,60.5L16.5,60.5z M16.5,60.5"/>
	<path fill="#91AEB5" d="M16.5,63.9H9.7c-0.2,0-0.4,0.2-0.4,0.4c0,0.2,0.2,0.4,0.4,0.4h6.9c0.2,0,0.4-0.2,0.4-0.4
		C16.9,64.1,16.7,63.9,16.5,63.9L16.5,63.9z M16.5,63.9"/>
	<path fill="#91AEB5" d="M7.5,47.8c0.2,0,0.4-0.2,0.4-0.4c0-0.2-0.2-0.4-0.4-0.4H5.4C5.1,47,5,47.1,5,47.4v20.1
		c0,0.2,0.2,0.4,0.4,0.4h15.5c0.2,0,0.4-0.2,0.4-0.4V47.4c0-0.2-0.2-0.4-0.4-0.4h-2.1c-0.2,0-0.4,0.2-0.4,0.4c0,0.2,0.2,0.4,0.4,0.4
		h1.7v19.3H5.8V47.8H7.5z M7.5,47.8"/>
	<path fill="#91AEB5" d="M15.3,44.8h-4.5c-0.2,0-0.4,0.2-0.4,0.4v0.8H9.1c-0.2,0-0.4,0.2-0.4,0.4V50c0,0.2,0.2,0.4,0.4,0.4h8
		c0.2,0,0.4-0.2,0.4-0.4v-3.5c0-0.2-0.2-0.4-0.4-0.4h-1.3v-0.8C15.8,45,15.6,44.8,15.3,44.8L15.3,44.8z M16.7,46.9v2.7H9.5v-2.7h1.3
		c0.2,0,0.4-0.2,0.4-0.4v-0.8h3.7v0.8c0,0.2,0.2,0.4,0.4,0.4H16.7z M16.7,46.9"/>
	<path fill="#91AEB5" d="M13.8,47.3c0,0.4-0.3,0.8-0.8,0.8c-0.4,0-0.8-0.3-0.8-0.8c0-0.4,0.3-0.8,0.8-0.8
		C13.5,46.5,13.8,46.9,13.8,47.3L13.8,47.3z M13.8,47.3"/>
</g>
</svg>
