<?xml version="1.0" encoding="utf-8"?>
<!-- Generator: Adobe Illustrator 17.1.0, SVG Export Plug-In . SVG Version: 6.00 Build 0)  -->
<!DOCTYPE svg PUBLIC "-//W3C//DTD SVG 1.1//EN" "http://www.w3.org/Graphics/SVG/1.1/DTD/svg11.dtd">
<svg version="1.1" id="Layer_1" xmlns="http://www.w3.org/2000/svg" xmlns:xlink="http://www.w3.org/1999/xlink" x="0px" y="0px"
	 viewBox="0 0 116.8 18.8" enable-background="new 0 0 116.8 18.8" xml:space="preserve">
<g>
	<path fill="#FFFFFF" d="M4.8,15h9.8v3.8H0V0h4.8V15z"/>
	<path fill="#FFFFFF" d="M25.4,18.8h-9.7V15h2.4V3.8h-2.4V0h9.7v3.8H23V15h2.4V18.8z"/>
	<path fill="#FFFFFF" d="M27.8,0h10.7c1.8,0,3,0.4,3.9,1.2c0.8,0.8,1.2,2,1.2,3.6c0,1.1-0.2,1.9-0.7,2.6c-0.5,0.7-1,1.1-1.7,1.4
		c1.4,0.4,2.4,1.4,3,2.9c0.2,0.6,0.3,1.2,0.3,1.9c0,1.8-0.4,3-1.2,3.9c-0.8,0.8-2.1,1.2-3.9,1.2H27.8V0z M38.8,5.4
		c0-1.1-0.5-1.6-1.6-1.6h-4.6v3.8h4.6c1.1,0,1.6-0.5,1.6-1.6V5.4z M39.6,12.9c0-1.1-0.5-1.6-1.6-1.6h-5.4V15H38
		c1.1,0,1.6-0.5,1.6-1.6V12.9z"/>
	<path fill="#FFFFFF" d="M61.8,18.8H46.8V0h14.9v3.8H51.7v3.6h7.9v3.8h-7.9V15h10.1V18.8z"/>
	<path fill="#FFFFFF" d="M63.9,0h11.3c1.9,0,3.2,0.4,4.1,1.3c0.8,0.9,1.3,2.2,1.3,4.1v2.4c0,1.5-0.2,2.6-0.7,3.5
		c-0.5,0.8-1.3,1.4-2.3,1.6l3.4,5.9h-5.2l-3.1-5.6h-3.8v5.6h-4.8V0z M75.7,5.4c0-1.1-0.5-1.6-1.6-1.6h-5.4v5.6h5.4
		c1.1,0,1.6-0.5,1.6-1.6V5.4z"/>
	<path fill="#FFFFFF" d="M92.4,18.8h-4.8v-15h-5.6V0h17.9v3.8h-7.4V18.8z"/>
	<path fill="#FFFFFF" d="M97.7,0h5.1l4.4,9.1l4.4-9.1h5.1l-7.1,13.8v5h-4.8v-5L97.7,0z"/>
</g>
</svg>
