<?xml version="1.0" encoding="utf-8"?>
<!-- Generator: Adobe Illustrator 17.1.0, SVG Export Plug-In . SVG Version: 6.00 Build 0)  -->
<!DOCTYPE svg PUBLIC "-//W3C//DTD SVG 1.1//EN" "http://www.w3.org/Graphics/SVG/1.1/DTD/svg11.dtd">
<svg version="1.1" id="Layer_1" xmlns="http://www.w3.org/2000/svg" xmlns:xlink="http://www.w3.org/1999/xlink" x="0px" y="0px"
	 viewBox="0 0 18.4 26" enable-background="new 0 0 18.4 26" xml:space="preserve">
<g>
	<path fill="#91AEB5" d="M8.6-35.6c-0.7,0-1.4,0.1-2,0.4C4-34.1,2.7-31,3.8-28.3c0.8,2,2.7,3.2,4.8,3.2c0.7,0,1.4-0.1,2-0.4
		c2.7-1.1,3.9-4.2,2.8-6.8C12.7-34.3,10.8-35.6,8.6-35.6L8.6-35.6z M9.8-27.5c-0.4,0.2-0.8,0.2-1.2,0.2c-1.2,0-2.4-0.7-2.8-1.9
		c-0.6-1.6,0.1-3.3,1.7-4c0.4-0.2,0.8-0.2,1.2-0.2c1.2,0,2.4,0.7,2.8,1.9C12.1-30,11.4-28.2,9.8-27.5L9.8-27.5z M9.8-27.5"/>
	<path fill="#91AEB5" d="M20.5-28.8c-0.7-0.2-1.1-0.9-1.1-1.6c0-0.6,0.4-1.3,1-1.5l0.1,0c0.9-0.3,1.4-1.3,1.1-2.2
		c-0.3-1-0.7-1.9-1.2-2.8c-0.3-0.5-0.9-0.9-1.6-0.9c-0.3,0-0.5,0.1-0.7,0.1c-0.2,0.1-0.4,0.1-0.7,0.1c-0.4,0-0.9-0.2-1.2-0.5
		c-0.5-0.5-0.6-1.2-0.3-1.9c0.4-0.8,0.1-1.9-0.7-2.3c-0.9-0.5-1.8-0.9-2.8-1.2c-0.2,0-0.3-0.1-0.5-0.1c-0.8,0-1.4,0.5-1.7,1.2
		c-0.2,0.6-0.9,1.1-1.6,1.1c-0.7,0-1.3-0.5-1.6-1.1c-0.2-0.7-0.9-1.2-1.7-1.2c-0.2,0-0.3,0-0.5,0.1c-1,0.3-1.9,0.7-2.8,1.2
		c-0.8,0.4-1.1,1.5-0.8,2.3c0.3,0.6,0.2,1.4-0.3,1.9c-0.3,0.3-0.7,0.5-1.2,0.5c-0.2,0-0.5,0-0.7-0.1c-0.2-0.1-0.5-0.2-0.8-0.2
		c-0.6,0-1.2,0.3-1.6,0.9c-0.5,0.9-0.9,1.9-1.2,2.8c-0.3,0.9,0.2,1.9,1.1,2.2c0.7,0.2,1.1,0.9,1.1,1.6c0,0.7-0.5,1.3-1.2,1.6
		c-0.9,0.3-1.3,1.2-1.1,2.2c0.3,1,0.7,1.9,1.2,2.8c0.3,0.5,0.9,0.9,1.6,0.9c0.3,0,0.5-0.1,0.8-0.1l0,0c0.2-0.1,0.4-0.1,0.6-0.1
		c0.4,0,0.9,0.2,1.2,0.5c0.5,0.5,0.6,1.2,0.3,1.9C0.9-20,1.2-19,2-18.6c0.9,0.5,1.8,0.9,2.8,1.2c0.2,0,0.3,0.1,0.5,0.1
		c0.8,0,1.4-0.5,1.7-1.2c0.2-0.6,0.9-1.1,1.6-1.1c0.7,0,1.3,0.5,1.6,1.1c0.2,0.7,0.9,1.2,1.7,1.2c0.2,0,0.3,0,0.5-0.1
		c0.5-0.1,1-0.3,1.5-0.5c0.5-0.2,0.9-0.4,1.3-0.6c0.8-0.4,1.1-1.5,0.8-2.3c-0.3-0.6-0.2-1.4,0.3-1.9c0.3-0.3,0.7-0.5,1.2-0.5
		c0.2,0,0.5,0,0.7,0.1c0.2,0.1,0.5,0.2,0.8,0.2c0.6,0,1.2-0.3,1.6-0.9c0.5-0.9,0.9-1.9,1.2-2.8C21.9-27.5,21.4-28.5,20.5-28.8
		L20.5-28.8z M18.7-25.1c-0.4-0.1-0.8-0.2-1.2-0.2c-1,0-2,0.4-2.7,1.1c-1,1-1.4,2.6-0.9,4c-0.3,0.1-0.5,0.3-0.8,0.4
		c-0.3,0.1-0.6,0.2-0.9,0.3c-0.6-1.3-2-2.2-3.5-2.2c-1.4,0-2.8,0.9-3.5,2.2C4.5-19.8,4-20,3.4-20.3c0.5-1.4,0.1-2.9-0.9-4
		c-0.7-0.7-1.7-1.1-2.7-1.1c-0.4,0-0.9,0.1-1.3,0.2c-0.3-0.6-0.5-1.1-0.7-1.7c1.4-0.7,2.2-2,2.2-3.5c0-1.5-0.9-2.9-2.2-3.5
		c0.2-0.6,0.4-1.2,0.7-1.7c0.4,0.1,0.8,0.2,1.2,0.2c1,0,2-0.4,2.7-1.1c1-1,1.4-2.6,0.9-4C4-40.8,4.6-41,5.2-41.2
		c0.6,1.3,2,2.2,3.5,2.2c1.4,0,2.8-0.9,3.5-2.2c0.6,0.2,1.2,0.4,1.7,0.7c-0.5,1.4-0.1,2.9,0.9,4c0.7,0.7,1.7,1.1,2.7,1.1
		c0.4,0,0.9-0.1,1.3-0.2c0.3,0.6,0.5,1.1,0.7,1.7c-1.3,0.6-2.2,2-2.2,3.5c0,1.5,0.9,2.9,2.2,3.5C19.2-26.3,19-25.7,18.7-25.1
		L18.7-25.1z M18.7-25.1"/>
</g>
<g>
	<path fill="#91AEB5" d="M16.5,45.6h-3.2v-2.1c0-0.4-0.3-0.7-0.8-0.7c0,0-0.1,0-0.1,0c0,0,0,0-0.1,0H4.7c-0.4,0-0.7,0.3-0.7,0.7v2.1
		H0.8c-0.9,0-1.6,0.7-1.6,1.6v2.7h1.4v15.2c0,0.9,0.7,1.6,1.6,1.6H15c0.9,0,1.6-0.7,1.6-1.6V49.9h1.4v-2.7
		C18.1,46.3,17.4,45.6,16.5,45.6L16.5,45.6z M5.5,44.2h6.3v1.3H5.5V44.2z M15.2,65.1c0,0.1,0,0.1-0.1,0.1H2.2c-0.1,0-0.1,0-0.1-0.1
		V49.9h13.1V65.1z M16.6,48.4H0.6v-1.2c0-0.1,0-0.1,0.1-0.1h15.7c0.1,0,0.1,0.1,0.1,0.1V48.4z M16.6,48.4"/>
	<rect x="11.3" y="51.6" fill="#91AEB5" width="1.5" height="12.3"/>
	<rect x="7.9" y="51.6" fill="#91AEB5" width="1.5" height="12.3"/>
	<rect x="4.4" y="51.6" fill="#91AEB5" width="1.5" height="12.3"/>
</g>
<g>
	<path fill="#91AEB5" d="M12.5,10.2H5.6c-0.2,0-0.4,0.2-0.4,0.4c0,0.2,0.2,0.4,0.4,0.4h6.9c0.2,0,0.4-0.2,0.4-0.4
		C12.9,10.4,12.7,10.2,12.5,10.2L12.5,10.2z M12.5,10.2"/>
	<path fill="#91AEB5" d="M12.5,13.7H5.6c-0.2,0-0.4,0.2-0.4,0.4c0,0.2,0.2,0.4,0.4,0.4h6.9c0.2,0,0.4-0.2,0.4-0.4
		C12.9,13.8,12.7,13.7,12.5,13.7L12.5,13.7z M12.5,13.7"/>
	<path fill="#91AEB5" d="M12.5,17.1H5.6c-0.2,0-0.4,0.2-0.4,0.4c0,0.2,0.2,0.4,0.4,0.4h6.9c0.2,0,0.4-0.2,0.4-0.4
		C12.9,17.3,12.7,17.1,12.5,17.1L12.5,17.1z M12.5,17.1"/>
	<path fill="#91AEB5" d="M12.5,20.5H5.6c-0.2,0-0.4,0.2-0.4,0.4c0,0.2,0.2,0.4,0.4,0.4h6.9c0.2,0,0.4-0.2,0.4-0.4
		C12.9,20.7,12.7,20.5,12.5,20.5L12.5,20.5z M12.5,20.5"/>
	<path fill="#91AEB5" d="M3.5,4.4c0.2,0,0.4-0.2,0.4-0.4c0-0.2-0.2-0.4-0.4-0.4H1.3C1.1,3.6,0.9,3.8,0.9,4v20.1
		c0,0.2,0.2,0.4,0.4,0.4h15.5c0.2,0,0.4-0.2,0.4-0.4V4c0-0.2-0.2-0.4-0.4-0.4h-2.1c-0.2,0-0.4,0.2-0.4,0.4c0,0.2,0.2,0.4,0.4,0.4
		h1.7v19.3H1.7V4.4H3.5z M3.5,4.4"/>
	<path fill="#91AEB5" d="M11.3,1.5H6.8c-0.2,0-0.4,0.2-0.4,0.4v0.8H5.1c-0.2,0-0.4,0.2-0.4,0.4v3.5C4.7,6.9,4.8,7,5.1,7h8
		c0.2,0,0.4-0.2,0.4-0.4V3.1c0-0.2-0.2-0.4-0.4-0.4h-1.3V1.9C11.7,1.7,11.5,1.5,11.3,1.5L11.3,1.5z M12.6,3.5v2.7H5.5V3.5h1.3
		c0.2,0,0.4-0.2,0.4-0.4V2.3h3.7v0.8c0,0.2,0.2,0.4,0.4,0.4H12.6z M12.6,3.5"/>
	<path fill="#91AEB5" d="M9.8,3.9c0,0.4-0.3,0.8-0.8,0.8c-0.4,0-0.8-0.3-0.8-0.8c0-0.4,0.3-0.8,0.8-0.8C9.5,3.2,9.8,3.5,9.8,3.9
		L9.8,3.9z M9.8,3.9"/>
</g>
</svg>
