<?xml version="1.0" encoding="utf-8"?>
<!-- Generator: Adobe Illustrator 17.1.0, SVG Export Plug-In . SVG Version: 6.00 Build 0)  -->
<!DOCTYPE svg PUBLIC "-//W3C//DTD SVG 1.1//EN" "http://www.w3.org/Graphics/SVG/1.1/DTD/svg11.dtd">
<svg version="1.1" id="Layer_1" xmlns="http://www.w3.org/2000/svg" xmlns:xlink="http://www.w3.org/1999/xlink" x="0px" y="0px"
	 viewBox="0 0 23.6 23.9" enable-background="new 0 0 23.6 23.9" xml:space="preserve">
<path fill="#ABC2C9" d="M23.6,2.7C22.2,1,20.1,0,17.8,0c-1.4,0-2.7,0.4-3.9,1.1c-1.4,0.9-2.5,2.2-3,3.7c-0.4-1.3-1.4-2.5-2.7-3.2
	C7.4,1.2,6.5,1,5.6,1C3.8,1,2.1,1.9,1.1,3.3C1,3.4,1,3.5,1.1,3.6c0,0.1,0.1,0.1,0.2,0.1c1.1-0.2,2.3-0.2,3.5,0.1c0.1,0,0.1,0,0.2,0
	C5,3.6,5,3.6,5,3.5l0.1-0.5l0.6,0.9C5.7,4,5.7,4,5.8,4c0.4,0.1,0.7,0.3,1,0.4C7,4.6,7.2,4.7,7.5,4.9c0.1,0,0.1,0,0.2,0
	c0.1,0,0.1-0.1,0.1-0.2l0.1-0.5l0.5,1.3c0,0,0,0.1,0.1,0.1C9.1,6.3,9.7,7,10.1,7.8c-1.1-1.2-2.7-2-4.3-2c-0.3,0-0.7,0-1,0.1
	C2,6.4-0.1,9,0,11.9C0,12,0.1,12,0.1,12.1c0,0,0,0,0.1,0c0.1,0,0.1,0,0.2-0.1c0.8-0.9,1.8-1.7,2.9-2.2c0.1,0,0.1-0.1,0.1-0.1
	c0-0.1,0-0.1,0-0.2L3.1,9.1l1,0.4c0,0,0.1,0,0.1,0C4.7,9.3,5,9.2,5.4,9.2c0.3,0,0.6-0.1,0.9-0.1c0.1,0,0.1,0,0.2-0.1
	c0-0.1,0-0.1,0-0.2L6.1,8.3l1.2,0.8c0,0,0.1,0,0.1,0c1,0.1,2,0.3,2.9,0.7L7.7,23.7c0,0.1,0,0.1,0,0.2c0,0,0.1,0.1,0.2,0.1h5.5
	c0,0,0,0,0,0c0.1,0,0.2-0.1,0.2-0.2c0,0,0-0.1,0-0.1L13,17c0-0.1,0-0.1-0.1-0.1c0,0-0.1,0-0.2,0l-1.2,0.2c0.3-0.4,0.8-1,1.3-1.7
	c0,0,0-0.1,0-0.1l-0.5-5.4C13,9.4,13.8,9,14.6,8.8c0,0,0.1,0,0.1,0l1-0.9l-0.2,0.5c0,0.1,0,0.1,0,0.2c0,0.1,0.1,0.1,0.2,0.1
	c0.3,0,0.6-0.1,0.8-0.1c0.3,0,0.7,0,1.1,0c0,0,0.1,0,0.1,0l0.9-0.5l-0.1,0.5c0,0.1,0,0.1,0,0.2c0,0.1,0.1,0.1,0.1,0.1
	c1.2,0.3,2.3,0.8,3.2,1.5c0.1,0.1,0.2,0.1,0.2,0c0.1,0,0.1-0.1,0.1-0.2c-0.5-2.8-2.9-4.7-5.7-4.6c-0.8,0-1.6,0.3-2.3,0.6l0.5-1.7
	l0.2,0.9c0,0.1,0.1,0.1,0.1,0.2c0.1,0,0.1,0,0.2,0c0.3-0.3,0.6-0.5,0.9-0.7c0.4-0.2,0.8-0.4,1.3-0.7c0,0,0.1,0,0.1-0.1l0.8-1.4
	l0.2,0.8c0,0.1,0,0.1,0.1,0.1c0.1,0,0.1,0,0.2,0c1.6-0.5,3.2-0.6,4.7-0.4c0.1,0,0.2,0,0.2-0.1C23.6,2.9,23.6,2.8,23.6,2.7L23.6,2.7z
	 M23.6,2.7"/>
</svg>
