<?xml version="1.0" encoding="utf-8"?>
<!-- Generator: Adobe Illustrator 17.1.0, SVG Export Plug-In . SVG Version: 6.00 Build 0)  -->
<!DOCTYPE svg PUBLIC "-//W3C//DTD SVG 1.1//EN" "http://www.w3.org/Graphics/SVG/1.1/DTD/svg11.dtd">
<svg version="1.1" id="Layer_1" xmlns="http://www.w3.org/2000/svg" xmlns:xlink="http://www.w3.org/1999/xlink" x="0px" y="0px"
	 viewBox="0 0 19.7 26" enable-background="new 0 0 19.7 26" xml:space="preserve">
<g>
	<path fill="#91AEB5" d="M9.1-35.6c-0.7,0-1.4,0.1-2,0.4c-2.7,1.1-3.9,4.2-2.8,6.8c0.8,2,2.7,3.2,4.8,3.2c0.7,0,1.4-0.1,2-0.4
		c2.7-1.1,3.9-4.2,2.8-6.8C13.2-34.3,11.3-35.6,9.1-35.6L9.1-35.6z M10.3-27.5c-0.4,0.2-0.8,0.2-1.2,0.2c-1.2,0-2.4-0.7-2.8-1.9
		c-0.6-1.6,0.1-3.3,1.7-4c0.4-0.2,0.8-0.2,1.2-0.2c1.2,0,2.4,0.7,2.8,1.9C12.6-30,11.9-28.2,10.3-27.5L10.3-27.5z M10.3-27.5"/>
	<path fill="#91AEB5" d="M21-28.8c-0.7-0.2-1.1-0.9-1.1-1.6c0-0.6,0.4-1.3,1-1.5l0.1,0c0.9-0.3,1.4-1.3,1.1-2.2
		c-0.3-1-0.7-1.9-1.2-2.8c-0.3-0.5-0.9-0.9-1.6-0.9c-0.3,0-0.5,0.1-0.7,0.1c-0.2,0.1-0.4,0.1-0.7,0.1c-0.4,0-0.9-0.2-1.2-0.5
		c-0.5-0.5-0.6-1.2-0.3-1.9c0.4-0.8,0.1-1.9-0.7-2.3c-0.9-0.5-1.8-0.9-2.8-1.2c-0.2,0-0.3-0.1-0.5-0.1c-0.8,0-1.4,0.5-1.7,1.2
		c-0.2,0.6-0.9,1.1-1.6,1.1c-0.7,0-1.3-0.5-1.6-1.1c-0.2-0.7-0.9-1.2-1.7-1.2c-0.2,0-0.3,0-0.5,0.1c-1,0.3-1.9,0.7-2.8,1.2
		c-0.8,0.4-1.1,1.5-0.8,2.3c0.3,0.6,0.2,1.4-0.3,1.9c-0.3,0.3-0.7,0.5-1.2,0.5c-0.2,0-0.5,0-0.7-0.1c-0.2-0.1-0.5-0.2-0.8-0.2
		c-0.6,0-1.2,0.3-1.6,0.9c-0.5,0.9-0.9,1.9-1.2,2.8c-0.3,0.9,0.2,1.9,1.1,2.2c0.7,0.2,1.1,0.9,1.1,1.6c0,0.7-0.5,1.3-1.2,1.6
		c-0.9,0.3-1.3,1.2-1.1,2.2c0.3,1,0.7,1.9,1.2,2.8c0.3,0.5,0.9,0.9,1.6,0.9c0.3,0,0.5-0.1,0.8-0.1l0,0c0.2-0.1,0.4-0.1,0.6-0.1
		c0.4,0,0.9,0.2,1.2,0.5c0.5,0.5,0.6,1.2,0.3,1.9C1.4-20,1.7-19,2.5-18.6c0.9,0.5,1.8,0.9,2.8,1.2c0.2,0,0.3,0.1,0.5,0.1
		c0.8,0,1.4-0.5,1.7-1.2c0.2-0.6,0.9-1.1,1.6-1.1c0.7,0,1.3,0.5,1.6,1.1c0.2,0.7,0.9,1.2,1.7,1.2c0.2,0,0.3,0,0.5-0.1
		c0.5-0.1,1-0.3,1.5-0.5c0.5-0.2,0.9-0.4,1.3-0.6c0.8-0.4,1.1-1.5,0.8-2.3c-0.3-0.6-0.2-1.4,0.3-1.9c0.3-0.3,0.7-0.5,1.2-0.5
		c0.2,0,0.5,0,0.7,0.1c0.2,0.1,0.5,0.2,0.8,0.2c0.6,0,1.2-0.3,1.6-0.9c0.5-0.9,0.9-1.9,1.2-2.8C22.4-27.5,21.9-28.5,21-28.8L21-28.8
		z M19.2-25.1c-0.4-0.1-0.8-0.2-1.2-0.2c-1,0-2,0.4-2.7,1.1c-1,1-1.4,2.6-0.9,4c-0.3,0.1-0.5,0.3-0.8,0.4c-0.3,0.1-0.6,0.2-0.9,0.3
		c-0.6-1.3-2-2.2-3.5-2.2c-1.4,0-2.8,0.9-3.5,2.2C5-19.8,4.5-20,3.9-20.3c0.5-1.4,0.1-2.9-0.9-4c-0.7-0.7-1.7-1.1-2.7-1.1
		c-0.4,0-0.9,0.1-1.3,0.2c-0.3-0.6-0.5-1.1-0.7-1.7c1.4-0.7,2.2-2,2.2-3.5c0-1.5-0.9-2.9-2.2-3.5c0.2-0.6,0.4-1.2,0.7-1.7
		c0.4,0.1,0.8,0.2,1.2,0.2c1,0,2-0.4,2.7-1.1c1-1,1.4-2.6,0.9-4c0.5-0.3,1.1-0.5,1.7-0.7c0.6,1.3,2,2.2,3.5,2.2
		c1.4,0,2.8-0.9,3.5-2.2c0.6,0.2,1.2,0.4,1.7,0.7c-0.5,1.4-0.1,2.9,0.9,4c0.7,0.7,1.7,1.1,2.7,1.1c0.4,0,0.9-0.1,1.3-0.2
		c0.3,0.6,0.5,1.1,0.7,1.7c-1.3,0.6-2.2,2-2.2,3.5c0,1.5,0.9,2.9,2.2,3.5C19.7-26.3,19.5-25.7,19.2-25.1L19.2-25.1z M19.2-25.1"/>
</g>
<g>
	<path fill="#91AEB5" d="M17.7,3.9h-3.2V1.8c0-0.4-0.3-0.7-0.8-0.7c0,0-0.1,0-0.1,0c0,0,0,0-0.1,0H6C5.6,1,5.3,1.4,5.3,1.8v2.1H2
		c-0.9,0-1.6,0.7-1.6,1.6v2.7h1.4v15.2c0,0.9,0.7,1.6,1.6,1.6h12.9c0.9,0,1.6-0.7,1.6-1.6V8.2h1.4V5.5C19.3,4.6,18.6,3.9,17.7,3.9
		L17.7,3.9z M6.7,2.5H13v1.3H6.7V2.5z M16.4,23.4c0,0.1,0,0.1-0.1,0.1H3.4c-0.1,0-0.1,0-0.1-0.1V8.2h13.1V23.4z M17.8,6.7H1.9V5.5
		c0-0.1,0-0.1,0.1-0.1h15.7c0.1,0,0.1,0.1,0.1,0.1V6.7z M17.8,6.7"/>
	<rect x="12.6" y="9.9" fill="#91AEB5" width="1.5" height="12.3"/>
	<rect x="9.1" y="9.9" fill="#91AEB5" width="1.5" height="12.3"/>
	<rect x="5.7" y="9.9" fill="#91AEB5" width="1.5" height="12.3"/>
</g>
</svg>
